<?xml version="1.0" standalone="no"?>
<!DOCTYPE svg PUBLIC "-//W3C//DTD SVG 20010904//EN"
 "http://www.w3.org/TR/2001/REC-SVG-20010904/DTD/svg10.dtd">
<svg version="1.0" xmlns="http://www.w3.org/2000/svg"
 width="224.000000pt" height="224.000000pt" viewBox="0 0 224.000000 224.000000"
 preserveAspectRatio="xMidYMid meet">
<metadata>
Created by potrace 1.14, written by Peter Selinger 2001-2017
</metadata>
<g transform="translate(0.000000,224.000000) scale(0.100000,-0.100000)"
fill="#000000" stroke="none">
<path d="M1289 1873 c-6 -43 -5 -113 2 -124 6 -11 13 -11 26 -3 18 11 28 78
17 117 -5 16 -43 25 -45 10z"/>
<path d="M983 1793 c-20 -7 -16 -32 12 -80 26 -43 42 -52 62 -32 8 8 4 23 -13
54 -28 49 -44 64 -61 58z"/>
<path d="M1607 1782 c-22 -26 -57 -99 -50 -106 4 -3 14 -6 24 -6 19 0 69 74
69 102 0 23 -26 29 -43 10z"/>
<path d="M679 1682 c-110 -37 -189 -123 -205 -223 -4 -24 -13 -43 -23 -46 -55
-17 -89 -38 -109 -68 -46 -67 -38 -161 18 -209 l29 -24 -24 -16 c-98 -65 -139
-184 -97 -287 31 -78 123 -138 213 -141 46 -1 49 -2 45 -24 -6 -33 -15 -44
-33 -44 -8 0 -28 -10 -45 -21 -73 -52 -67 -167 11 -212 30 -17 70 -18 645 -18
599 0 615 0 654 20 62 31 101 99 97 168 -2 36 -34 113 -47 113 -4 0 -8 4 -8 9
0 5 8 8 18 7 30 -5 96 24 130 57 97 94 44 277 -89 302 -30 6 -36 14 -42 55 -5
45 -48 128 -81 159 -14 14 -26 33 -26 42 0 34 -43 134 -77 181 -123 170 -388
215 -554 93 l-34 -26 -18 23 c-48 61 -86 93 -135 116 -64 29 -152 35 -213 14z"/>
<path d="M1808 1538 c-75 -46 -61 -91 15 -52 45 23 66 44 61 59 -10 24 -28 22
-76 -7z"/>
<path d="M1839 1234 c-21 -25 6 -43 60 -40 53 3 71 11 71 32 0 16 3 15 -67 19
-36 2 -56 -1 -64 -11z"/>
</g>
</svg>
